<?xml version="1.0" encoding="UTF-8" standalone="no"?>
<svg
   xmlns:dc="http://purl.org/dc/elements/1.1/"
   xmlns:cc="http://creativecommons.org/ns#"
   xmlns:rdf="http://www.w3.org/1999/02/22-rdf-syntax-ns#"
   xmlns:svg="http://www.w3.org/2000/svg"
   xmlns="http://www.w3.org/2000/svg"
   xmlns:sodipodi="http://sodipodi.sourceforge.net/DTD/sodipodi-0.dtd"
   xmlns:inkscape="http://www.inkscape.org/namespaces/inkscape"
   version="1.1"
   id="Capa_1"
   x="0px"
   y="0px"
   viewBox="-126423.22 0 0 64.038308"
   xml:space="preserve"
   inkscape:version="0.91 r"
   width="64"
   height="64"
   sodipodi:docname="favicon.svg"
   inkscape:export-xdpi="89.999992"
   inkscape:export-ydpi="89.999992"
   inkscape:export-filename="/home/mike/Projects/git/arden2bytecode-gh-pages/images/favicon.png"><metadata
     id="metadata39"><rdf:RDF><cc:Work
         rdf:about=""><dc:format>image/svg+xml</dc:format><dc:type
           rdf:resource="http://purl.org/dc/dcmitype/StillImage" /><dc:title></dc:title></cc:Work></rdf:RDF></metadata><defs
     id="defs37"><linearGradient
       id="linearGradient8662-6"><stop
         id="stop8664-3"
         offset="0"
         style="stop-color:#666666;stop-opacity:1;" /><stop
         style="stop-color:#666666;stop-opacity:0.49803922;"
         offset="0.28567961"
         id="stop8666-8" /><stop
         id="stop8668-3"
         offset="1"
         style="stop-color:#666666;stop-opacity:0;" /></linearGradient><linearGradient
       id="linearGradient10658"><stop
         id="stop10660"
         offset="0"
         style="stop-color:#666666;stop-opacity:1;" /><stop
         style="stop-color:#666666;stop-opacity:0.74901961;"
         offset="0.1428398"
         id="stop13814" /><stop
         style="stop-color:#666666;stop-opacity:0.49803922;"
         offset="0.28567961"
         id="stop10662" /><stop
         id="stop10664"
         offset="1"
         style="stop-color:#666666;stop-opacity:0;" /></linearGradient></defs><sodipodi:namedview
     pagecolor="#ffffff"
     bordercolor="#666666"
     borderopacity="1"
     objecttolerance="10"
     gridtolerance="10"
     guidetolerance="10"
     inkscape:pageopacity="0"
     inkscape:pageshadow="2"
     inkscape:window-width="1859"
     inkscape:window-height="1056"
     id="namedview35"
     showgrid="false"
     fit-margin-top="0"
     fit-margin-left="0"
     fit-margin-right="0"
     fit-margin-bottom="0"
     inkscape:zoom="8"
     inkscape:cx="46.61333"
     inkscape:cy="26.471036"
     inkscape:window-x="61"
     inkscape:window-y="24"
     inkscape:window-maximized="1"
     inkscape:current-layer="g6287" /><g
     id="g5"
     transform="translate(-15.943534,58.01779)" /><g
     id="g7"
     transform="translate(-15.943534,58.01779)" /><g
     id="g9"
     transform="translate(-15.943534,58.01779)" /><g
     id="g11"
     transform="translate(-15.943534,58.01779)" /><g
     id="g13"
     transform="translate(-15.943534,58.01779)" /><g
     id="g15"
     transform="translate(-15.943534,58.01779)" /><g
     id="g17"
     transform="translate(-15.943534,58.01779)" /><g
     id="g19"
     transform="translate(-15.943534,58.01779)" /><g
     id="g21"
     transform="translate(-15.943534,58.01779)" /><g
     id="g23"
     transform="translate(-15.943534,58.01779)" /><g
     id="g25"
     transform="translate(-15.943534,58.01779)" /><g
     id="g27"
     transform="translate(-15.943534,58.01779)" /><g
     id="g29"
     transform="translate(-15.943534,58.01779)" /><g
     id="g31"
     transform="translate(-15.943534,58.01779)" /><g
     id="g33"
     transform="translate(-15.943534,58.01779)" /><g
     id="g13364"
     transform="translate(11.410471,192.97452)"><g
       id="g6287"
       transform="translate(118.02945,-61.746003)"><path
         d="m -97.589348,-67.228517 -10.780442,0 c -1.3527,0 -2.44877,-1.118825 -2.44877,-2.499609 l 0,-16.487419 -16.15206,0.015 -0.002,0 c -0.64843,0 -1.27042,-0.26296 -1.72981,-0.729887 -0.45938,-0.468927 -0.71797,-1.103827 -0.71895,-1.766723 l -0.0186,-21.001733 c -0.001,-1.38079 1.0941,-2.50061 2.4468,-2.50161 l 16.17557,-0.015 0,-16.51341 c 0,-1.38078 1.09606,-2.49961 2.44876,-2.49961 l 10.928867,0 c 0,13.36856 0,57.784778 0,64.000003 z"
         id="path3-2-27-4-7-4"
         inkscape:connector-curvature="0"
         sodipodi:nodetypes="cssccscccccssccc"
         style="fill:#ef3224;fill-opacity:1" /><g
         transform="matrix(1.1952778,0,0,0.83346448,-154.26325,19.79484)"
         style="font-style:normal;font-variant:normal;font-weight:normal;font-stretch:normal;font-size:7.27325392px;line-height:109.00000334%;font-family:Arial;-inkscape-font-specification:Arial;letter-spacing:0.5px;word-spacing:0px;fill:#ef3224;fill-opacity:1;stroke:none"
         id="text3846-6-9"><path
           inkscape:connector-curvature="0"
           d="m 48.909833,-179.41049 -0.762662,0 0,-1.68802 2.750332,0 0,5.19102 -1.98767,0 z"
           style="font-weight:bold;line-height:109.00000334%;font-family:'Futura XBlk BT';-inkscape-font-specification:'Futura XBlk BT Bold';fill:#ef3224;fill-opacity:1"
           id="path4322-0" /><path
           inkscape:connector-curvature="0"
           d="m 54.859002,-178.48913 c -2e-6,0.36018 0.02915,0.61539 0.08745,0.76566 0.0583,0.15027 0.140056,0.22541 0.245268,0.2254 0.104468,1e-5 0.185447,-0.0744 0.242938,-0.22329 0.05748,-0.14886 0.08623,-0.40478 0.08623,-0.76777 -3e-6,-0.36046 -0.02875,-0.61572 -0.08623,-0.76577 -0.05749,-0.15004 -0.13847,-0.22506 -0.242938,-0.22507 -0.107432,1e-5 -0.189743,0.0736 -0.246932,0.22086 -0.0572,0.14723 -0.08579,0.4039 -0.08579,0.76998 z m -1.939061,0 c 0,-0.83516 0.202096,-1.49568 0.60629,-1.98156 0.404191,-0.48587 0.959355,-0.72881 1.665492,-0.72882 0.709832,1e-5 1.265328,0.24143 1.666492,0.72427 0.401155,0.48284 0.601734,1.14488 0.601739,1.98611 -5e-6,0.84213 -0.200399,1.50557 -0.601184,1.99034 -0.400794,0.48476 -0.956475,0.72714 -1.667047,0.72714 -0.704509,0 -1.259266,-0.24449 -1.664271,-0.73347 -0.405008,-0.48898 -0.607511,-1.15032 -0.607511,-1.98401 z"
           style="font-weight:bold;line-height:109.00000334%;font-family:'Futura XBlk BT';-inkscape-font-specification:'Futura XBlk BT Bold';fill:#ef3224;fill-opacity:1"
           id="path4324-5" /><path
           inkscape:connector-curvature="0"
           d="m 48.909833,-171.48264 -0.762662,0 0,-1.68803 2.750332,0 0,5.19103 -1.98767,0 z"
           style="font-weight:bold;line-height:109.00000334%;font-family:'Futura XBlk BT';-inkscape-font-specification:'Futura XBlk BT Bold';fill:#ef3224;fill-opacity:1"
           id="path4334-3" /><path
           inkscape:connector-curvature="0"
           d="m 54.410195,-171.48264 -0.762662,0 0,-1.68803 2.750332,0 0,5.19103 -1.98767,0 z"
           style="font-weight:bold;line-height:109.00000334%;font-family:'Futura XBlk BT';-inkscape-font-specification:'Futura XBlk BT Bold';fill:#ef3224;fill-opacity:1"
           id="path4336-9" /><path
           inkscape:connector-curvature="0"
           d="m 48.909833,-163.5548 -0.762662,0 0,-1.68802 2.750332,0 0,5.19103 -1.98767,0 z"
           style="font-weight:bold;line-height:109.00000334%;font-family:'Futura XBlk BT';-inkscape-font-specification:'Futura XBlk BT Bold';fill:#ef3224;fill-opacity:1"
           id="path4346-1" /><path
           inkscape:connector-curvature="0"
           d="m 54.859002,-162.63343 c -2e-6,0.36017 0.02915,0.61539 0.08745,0.76566 0.0583,0.15027 0.140056,0.2254 0.245268,0.2254 0.104468,0 0.185447,-0.0744 0.242938,-0.2233 0.05748,-0.14886 0.08623,-0.40478 0.08623,-0.76776 -3e-6,-0.36047 -0.02875,-0.61572 -0.08623,-0.76577 -0.05749,-0.15005 -0.13847,-0.22507 -0.242938,-0.22507 -0.107432,0 -0.189743,0.0736 -0.246932,0.22085 -0.0572,0.14724 -0.08579,0.4039 -0.08579,0.76999 z m -1.939061,0 c 0,-0.83517 0.202096,-1.49569 0.60629,-1.98157 0.404191,-0.48587 0.959355,-0.72881 1.665492,-0.72881 0.709832,0 1.265328,0.24142 1.666492,0.72426 0.401155,0.48285 0.601734,1.14488 0.601739,1.98612 -5e-6,0.84212 -0.200399,1.50557 -0.601184,1.99033 -0.400794,0.48477 -0.956475,0.72715 -1.667047,0.72715 -0.704509,0 -1.259266,-0.24449 -1.664271,-0.73347 -0.405008,-0.48899 -0.607511,-1.15032 -0.607511,-1.98401 z"
           style="font-weight:bold;line-height:109.00000334%;font-family:'Futura XBlk BT';-inkscape-font-specification:'Futura XBlk BT Bold';fill:#ef3224;fill-opacity:1"
           id="path4348-2" /><path
           inkscape:connector-curvature="0"
           d="m 49.35864,-154.70559 c -2e-6,0.36018 0.02915,0.6154 0.08745,0.76566 0.0583,0.15027 0.140056,0.22541 0.245268,0.2254 0.104468,1e-5 0.185447,-0.0744 0.242938,-0.22329 0.05748,-0.14886 0.08623,-0.40478 0.08623,-0.76777 -3e-6,-0.36046 -0.02875,-0.61572 -0.08623,-0.76577 -0.05749,-0.15004 -0.13847,-0.22506 -0.242938,-0.22506 -0.107432,0 -0.189743,0.0736 -0.246932,0.22085 -0.0572,0.14724 -0.08579,0.4039 -0.08579,0.76998 z m -1.939061,0 c 0,-0.83516 0.202096,-1.49568 0.60629,-1.98156 0.404192,-0.48587 0.959355,-0.72881 1.665492,-0.72882 0.709832,10e-6 1.265329,0.24143 1.666492,0.72427 0.401155,0.48284 0.601734,1.14488 0.601739,1.98611 -5e-6,0.84213 -0.200399,1.50557 -0.601184,1.99034 -0.400794,0.48476 -0.956475,0.72715 -1.667047,0.72715 -0.704509,0 -1.259266,-0.2445 -1.664271,-0.73348 -0.405008,-0.48898 -0.607511,-1.15031 -0.607511,-1.98401 z"
           style="font-weight:bold;line-height:109.00000334%;font-family:'Futura XBlk BT';-inkscape-font-specification:'Futura XBlk BT Bold';fill:#ef3224;fill-opacity:1"
           id="path4358-8" /><path
           inkscape:connector-curvature="0"
           d="m 54.410195,-155.62695 -0.762662,0 0,-1.68802 2.750332,0 0,5.19103 -1.98767,0 z"
           style="font-weight:bold;line-height:109.00000334%;font-family:'Futura XBlk BT';-inkscape-font-specification:'Futura XBlk BT Bold';fill:#ef3224;fill-opacity:1"
           id="path4360-8" /><path
           inkscape:connector-curvature="0"
           d="m 59.910557,-155.62695 -0.762662,0 0,-1.68802 2.750332,0 0,5.19103 -1.98767,0 z"
           style="font-weight:bold;line-height:109.00000334%;font-family:'Futura XBlk BT';-inkscape-font-specification:'Futura XBlk BT Bold';fill:#ef3224;fill-opacity:1"
           id="path4362-1" /><path
           inkscape:connector-curvature="0"
           d="m 65.859726,-154.70559 c -3e-6,0.36018 0.02915,0.6154 0.08745,0.76566 0.0583,0.15027 0.140055,0.22541 0.245268,0.2254 0.104467,1e-5 0.185446,-0.0744 0.242937,-0.22329 0.05749,-0.14886 0.08623,-0.40478 0.08623,-0.76777 -2e-6,-0.36046 -0.02875,-0.61572 -0.08623,-0.76577 -0.05749,-0.15004 -0.13847,-0.22506 -0.242937,-0.22506 -0.107432,0 -0.189743,0.0736 -0.246933,0.22085 -0.0572,0.14724 -0.08579,0.4039 -0.08579,0.76998 z m -1.939061,0 c -10e-7,-0.83516 0.202096,-1.49568 0.606289,-1.98156 0.404192,-0.48587 0.959355,-0.72881 1.665493,-0.72882 0.709831,10e-6 1.265328,0.24143 1.666491,0.72427 0.401155,0.48284 0.601735,1.14488 0.601739,1.98611 -4e-6,0.84213 -0.200399,1.50557 -0.601184,1.99034 -0.400793,0.48476 -0.956475,0.72715 -1.667046,0.72715 -0.70451,0 -1.259267,-0.2445 -1.664272,-0.73348 -0.405007,-0.48898 -0.607511,-1.15031 -0.60751,-1.98401 z"
           style="font-weight:bold;line-height:109.00000334%;font-family:'Futura XBlk BT';-inkscape-font-specification:'Futura XBlk BT Bold';fill:#ef3224;fill-opacity:1"
           id="path4364-8" /><path
           inkscape:connector-curvature="0"
           d="m 71.360088,-154.70559 c -2e-6,0.36018 0.02915,0.6154 0.08745,0.76566 0.0583,0.15027 0.140056,0.22541 0.245268,0.2254 0.104468,1e-5 0.185447,-0.0744 0.242938,-0.22329 0.05748,-0.14886 0.08623,-0.40478 0.08623,-0.76777 -3e-6,-0.36046 -0.02875,-0.61572 -0.08623,-0.76577 -0.05749,-0.15004 -0.13847,-0.22506 -0.242938,-0.22506 -0.107432,0 -0.189743,0.0736 -0.246933,0.22085 -0.05719,0.14724 -0.08579,0.4039 -0.08579,0.76998 z m -1.939061,0 c 0,-0.83516 0.202096,-1.49568 0.60629,-1.98156 0.404191,-0.48587 0.959355,-0.72881 1.665492,-0.72882 0.709832,10e-6 1.265328,0.24143 1.666491,0.72427 0.401155,0.48284 0.601735,1.14488 0.60174,1.98611 -5e-6,0.84213 -0.2004,1.50557 -0.601185,1.99034 -0.400793,0.48476 -0.956474,0.72715 -1.667046,0.72715 -0.704509,0 -1.259266,-0.2445 -1.664272,-0.73348 -0.405007,-0.48898 -0.60751,-1.15031 -0.60751,-1.98401 z"
           style="font-weight:bold;line-height:109.00000334%;font-family:'Futura XBlk BT';-inkscape-font-specification:'Futura XBlk BT Bold';fill:#ef3224;fill-opacity:1"
           id="path4366-6" /><path
           inkscape:connector-curvature="0"
           d="m 48.909833,-147.6991 -0.762662,0 0,-1.68803 2.750332,0 0,5.19103 -1.98767,0 z"
           style="font-weight:bold;line-height:109.00000334%;font-family:'Futura XBlk BT';-inkscape-font-specification:'Futura XBlk BT Bold';fill:#ef3224;fill-opacity:1"
           id="path4370-0" /><path
           inkscape:connector-curvature="0"
           d="m 54.410195,-147.6991 -0.762662,0 0,-1.68803 2.750332,0 0,5.19103 -1.98767,0 z"
           style="font-weight:bold;line-height:109.00000334%;font-family:'Futura XBlk BT';-inkscape-font-specification:'Futura XBlk BT Bold';fill:#ef3224;fill-opacity:1"
           id="path4372-2" /><path
           inkscape:connector-curvature="0"
           d="m 60.359364,-146.77774 c -2e-6,0.36017 0.02915,0.61539 0.08745,0.76566 0.0583,0.15027 0.140056,0.2254 0.245268,0.2254 0.104468,0 0.185447,-0.0744 0.242938,-0.22329 0.05748,-0.14886 0.08623,-0.40478 0.08623,-0.76777 -3e-6,-0.36046 -0.02875,-0.61572 -0.08623,-0.76577 -0.05749,-0.15004 -0.13847,-0.22506 -0.242938,-0.22507 -0.107432,10e-6 -0.189743,0.0736 -0.246933,0.22085 -0.05719,0.14724 -0.08579,0.4039 -0.08579,0.76999 z m -1.939061,0 c 0,-0.83516 0.202096,-1.49569 0.60629,-1.98157 0.404191,-0.48587 0.959355,-0.7288 1.665492,-0.72881 0.709832,1e-5 1.265328,0.24143 1.666492,0.72426 0.401155,0.48285 0.601734,1.14489 0.601739,1.98612 -5e-6,0.84213 -0.200399,1.50557 -0.601184,1.99034 -0.400794,0.48476 -0.956475,0.72714 -1.667047,0.72714 -0.704509,0 -1.259266,-0.24449 -1.664272,-0.73347 -0.405007,-0.48898 -0.60751,-1.15032 -0.60751,-1.98401 z"
           style="font-weight:bold;line-height:109.00000334%;font-family:'Futura XBlk BT';-inkscape-font-specification:'Futura XBlk BT Bold';fill:#ef3224;fill-opacity:1"
           id="path4374-4" /><path
           inkscape:connector-curvature="0"
           d="m 65.410918,-147.6991 -0.762662,0 0,-1.68803 2.750333,0 0,5.19103 -1.987671,0 z"
           style="font-weight:bold;line-height:109.00000334%;font-family:'Futura XBlk BT';-inkscape-font-specification:'Futura XBlk BT Bold';fill:#ef3224;fill-opacity:1"
           id="path4376-9" /><path
           inkscape:connector-curvature="0"
           d="m 70.911281,-147.6991 -0.762662,0 0,-1.68803 2.750332,0 0,5.19103 -1.98767,0 z"
           style="font-weight:bold;line-height:109.00000334%;font-family:'Futura XBlk BT';-inkscape-font-specification:'Futura XBlk BT Bold';fill:#ef3224;fill-opacity:1"
           id="path4378-0" /><path
           inkscape:connector-curvature="0"
           d="m 49.35864,-138.84989 c -2e-6,0.36017 0.02915,0.61539 0.08745,0.76566 0.0583,0.15027 0.140056,0.2254 0.245268,0.2254 0.104468,0 0.185447,-0.0744 0.242938,-0.2233 0.05748,-0.14886 0.08623,-0.40478 0.08623,-0.76776 -3e-6,-0.36047 -0.02875,-0.61572 -0.08623,-0.76577 -0.05749,-0.15004 -0.13847,-0.22507 -0.242938,-0.22507 -0.107432,0 -0.189743,0.0736 -0.246932,0.22085 -0.0572,0.14724 -0.08579,0.4039 -0.08579,0.76999 z m -1.939061,0 c 0,-0.83517 0.202096,-1.49569 0.60629,-1.98157 0.404192,-0.48587 0.959355,-0.72881 1.665492,-0.72881 0.709832,0 1.265329,0.24142 1.666492,0.72426 0.401155,0.48285 0.601734,1.14489 0.601739,1.98612 -5e-6,0.84212 -0.200399,1.50557 -0.601184,1.99033 -0.400794,0.48477 -0.956475,0.72715 -1.667047,0.72715 -0.704509,0 -1.259266,-0.24449 -1.664271,-0.73347 -0.405008,-0.48899 -0.607511,-1.15032 -0.607511,-1.98401 z"
           style="font-weight:bold;line-height:109.00000334%;font-family:'Futura XBlk BT';-inkscape-font-specification:'Futura XBlk BT Bold';fill:#ef3224;fill-opacity:1"
           id="path4382-2" /><path
           inkscape:connector-curvature="0"
           d="m 54.859002,-138.84989 c -2e-6,0.36017 0.02915,0.61539 0.08745,0.76566 0.0583,0.15027 0.140056,0.2254 0.245268,0.2254 0.104468,0 0.185447,-0.0744 0.242938,-0.2233 0.05748,-0.14886 0.08623,-0.40478 0.08623,-0.76776 -3e-6,-0.36047 -0.02875,-0.61572 -0.08623,-0.76577 -0.05749,-0.15004 -0.13847,-0.22507 -0.242938,-0.22507 -0.107432,0 -0.189743,0.0736 -0.246932,0.22085 -0.0572,0.14724 -0.08579,0.4039 -0.08579,0.76999 z m -1.939061,0 c 0,-0.83517 0.202096,-1.49569 0.60629,-1.98157 0.404191,-0.48587 0.959355,-0.72881 1.665492,-0.72881 0.709832,0 1.265328,0.24142 1.666492,0.72426 0.401155,0.48285 0.601734,1.14489 0.601739,1.98612 -5e-6,0.84212 -0.200399,1.50557 -0.601184,1.99033 -0.400794,0.48477 -0.956475,0.72715 -1.667047,0.72715 -0.704509,0 -1.259266,-0.24449 -1.664271,-0.73347 -0.405008,-0.48899 -0.607511,-1.15032 -0.607511,-1.98401 z"
           style="font-weight:bold;line-height:109.00000334%;font-family:'Futura XBlk BT';-inkscape-font-specification:'Futura XBlk BT Bold';fill:#ef3224;fill-opacity:1"
           id="path4384-2" /><path
           inkscape:connector-curvature="0"
           d="m 59.910557,-139.77126 -0.762662,0 0,-1.68802 2.750332,0 0,5.19103 -1.98767,0 z"
           style="font-weight:bold;line-height:109.00000334%;font-family:'Futura XBlk BT';-inkscape-font-specification:'Futura XBlk BT Bold';fill:#ef3224;fill-opacity:1"
           id="path4386-1" /><path
           inkscape:connector-curvature="0"
           d="m 65.410918,-139.77126 -0.762662,0 0,-1.68802 2.750333,0 0,5.19103 -1.987671,0 z"
           style="font-weight:bold;line-height:109.00000334%;font-family:'Futura XBlk BT';-inkscape-font-specification:'Futura XBlk BT Bold';fill:#ef3224;fill-opacity:1"
           id="path4388-5" /><path
           inkscape:connector-curvature="0"
           d="m 71.360088,-138.84989 c -2e-6,0.36017 0.02915,0.61539 0.08745,0.76566 0.0583,0.15027 0.140056,0.2254 0.245268,0.2254 0.104468,0 0.185447,-0.0744 0.242938,-0.2233 0.05748,-0.14886 0.08623,-0.40478 0.08623,-0.76776 -3e-6,-0.36047 -0.02875,-0.61572 -0.08623,-0.76577 -0.05749,-0.15004 -0.13847,-0.22507 -0.242938,-0.22507 -0.107432,0 -0.189743,0.0736 -0.246933,0.22085 -0.05719,0.14724 -0.08579,0.4039 -0.08579,0.76999 z m -1.939061,0 c 0,-0.83517 0.202096,-1.49569 0.60629,-1.98157 0.404191,-0.48587 0.959355,-0.72881 1.665492,-0.72881 0.709832,0 1.265328,0.24142 1.666491,0.72426 0.401155,0.48285 0.601735,1.14489 0.60174,1.98612 -5e-6,0.84212 -0.2004,1.50557 -0.601185,1.99033 -0.400793,0.48477 -0.956474,0.72715 -1.667046,0.72715 -0.704509,0 -1.259266,-0.24449 -1.664272,-0.73347 -0.405007,-0.48899 -0.60751,-1.15032 -0.60751,-1.98401 z"
           style="font-weight:bold;line-height:109.00000334%;font-family:'Futura XBlk BT';-inkscape-font-specification:'Futura XBlk BT Bold';fill:#ef3224;fill-opacity:1"
           id="path4390-4" /><path
           inkscape:connector-curvature="0"
           d="m 49.35864,-130.92205 c -2e-6,0.36018 0.02915,0.6154 0.08745,0.76566 0.0583,0.15027 0.140056,0.22541 0.245268,0.22541 0.104468,0 0.185447,-0.0744 0.242938,-0.2233 0.05748,-0.14886 0.08623,-0.40478 0.08623,-0.76777 -3e-6,-0.36046 -0.02875,-0.61571 -0.08623,-0.76576 -0.05749,-0.15005 -0.13847,-0.22507 -0.242938,-0.22507 -0.107432,0 -0.189743,0.0736 -0.246932,0.22085 -0.0572,0.14724 -0.08579,0.4039 -0.08579,0.76998 z m -1.939061,0 c 0,-0.83516 0.202096,-1.49568 0.60629,-1.98156 0.404192,-0.48587 0.959355,-0.72881 1.665492,-0.72881 0.709832,0 1.265329,0.24142 1.666492,0.72426 0.401155,0.48284 0.601734,1.14488 0.601739,1.98611 -5e-6,0.84213 -0.200399,1.50557 -0.601184,1.99034 -0.400794,0.48476 -0.956475,0.72715 -1.667047,0.72715 -0.704509,0 -1.259266,-0.24449 -1.664271,-0.73348 -0.405008,-0.48898 -0.607511,-1.15031 -0.607511,-1.98401 z"
           style="font-weight:bold;line-height:109.00000334%;font-family:'Futura XBlk BT';-inkscape-font-specification:'Futura XBlk BT Bold';fill:#ef3224;fill-opacity:1"
           id="path4394-4" /><path
           inkscape:connector-curvature="0"
           d="m 54.410195,-131.84341 -0.762662,0 0,-1.68802 2.750332,0 0,5.19103 -1.98767,0 z"
           style="font-weight:bold;line-height:109.00000334%;font-family:'Futura XBlk BT';-inkscape-font-specification:'Futura XBlk BT Bold';fill:#ef3224;fill-opacity:1"
           id="path4396-4" /><path
           inkscape:connector-curvature="0"
           d="m 60.359364,-130.92205 c -2e-6,0.36018 0.02915,0.6154 0.08745,0.76566 0.0583,0.15027 0.140056,0.22541 0.245268,0.22541 0.104468,0 0.185447,-0.0744 0.242938,-0.2233 0.05748,-0.14886 0.08623,-0.40478 0.08623,-0.76777 -3e-6,-0.36046 -0.02875,-0.61571 -0.08623,-0.76576 -0.05749,-0.15005 -0.13847,-0.22507 -0.242938,-0.22507 -0.107432,0 -0.189743,0.0736 -0.246933,0.22085 -0.05719,0.14724 -0.08579,0.4039 -0.08579,0.76998 z m -1.939061,0 c 0,-0.83516 0.202096,-1.49568 0.60629,-1.98156 0.404191,-0.48587 0.959355,-0.72881 1.665492,-0.72881 0.709832,0 1.265328,0.24142 1.666492,0.72426 0.401155,0.48284 0.601734,1.14488 0.601739,1.98611 -5e-6,0.84213 -0.200399,1.50557 -0.601184,1.99034 -0.400794,0.48476 -0.956475,0.72715 -1.667047,0.72715 -0.704509,0 -1.259266,-0.24449 -1.664272,-0.73348 -0.405007,-0.48898 -0.60751,-1.15031 -0.60751,-1.98401 z"
           style="font-weight:bold;line-height:109.00000334%;font-family:'Futura XBlk BT';-inkscape-font-specification:'Futura XBlk BT Bold';fill:#ef3224;fill-opacity:1"
           id="path4398-2" /><path
           inkscape:connector-curvature="0"
           d="m 65.410918,-131.84341 -0.762662,0 0,-1.68802 2.750333,0 0,5.19103 -1.987671,0 z"
           style="font-weight:bold;line-height:109.00000334%;font-family:'Futura XBlk BT';-inkscape-font-specification:'Futura XBlk BT Bold';fill:#ef3224;fill-opacity:1"
           id="path4400-5" /><path
           inkscape:connector-curvature="0"
           d="m 70.911281,-131.84341 -0.762662,0 0,-1.68802 2.750332,0 0,5.19103 -1.98767,0 z"
           style="font-weight:bold;line-height:109.00000334%;font-family:'Futura XBlk BT';-inkscape-font-specification:'Futura XBlk BT Bold';fill:#ef3224;fill-opacity:1"
           id="path4402-0" /><path
           inkscape:connector-curvature="0"
           d="m 48.909833,-123.91556 -0.762662,0 0,-1.68802 2.750332,0 0,5.19102 -1.98767,0 z"
           style="font-weight:bold;line-height:109.00000334%;font-family:'Futura XBlk BT';-inkscape-font-specification:'Futura XBlk BT Bold';fill:#ef3224;fill-opacity:1"
           id="path4406-4" /><path
           inkscape:connector-curvature="0"
           d="m 54.410195,-123.91556 -0.762662,0 0,-1.68802 2.750332,0 0,5.19102 -1.98767,0 z"
           style="font-weight:bold;line-height:109.00000334%;font-family:'Futura XBlk BT';-inkscape-font-specification:'Futura XBlk BT Bold';fill:#ef3224;fill-opacity:1"
           id="path4408-2" /><path
           inkscape:connector-curvature="0"
           d="m 49.35864,-115.06635 c -2e-6,0.36017 0.02915,0.61539 0.08745,0.76566 0.0583,0.15027 0.140056,0.2254 0.245268,0.2254 0.104468,0 0.185447,-0.0744 0.242938,-0.22329 0.05748,-0.14886 0.08623,-0.40479 0.08623,-0.76777 -3e-6,-0.36046 -0.02875,-0.61572 -0.08623,-0.76577 -0.05749,-0.15004 -0.13847,-0.22507 -0.242938,-0.22507 -0.107432,0 -0.189743,0.0736 -0.246932,0.22085 -0.0572,0.14724 -0.08579,0.4039 -0.08579,0.76999 z m -1.939061,0 c 0,-0.83517 0.202096,-1.49569 0.60629,-1.98157 0.404192,-0.48587 0.959355,-0.7288 1.665492,-0.72881 0.709832,1e-5 1.265329,0.24143 1.666492,0.72426 0.401155,0.48285 0.601734,1.14489 0.601739,1.98612 -5e-6,0.84212 -0.200399,1.50557 -0.601184,1.99033 -0.400794,0.48477 -0.956475,0.72715 -1.667047,0.72715 -0.704509,0 -1.259266,-0.24449 -1.664271,-0.73347 -0.405008,-0.48898 -0.607511,-1.15032 -0.607511,-1.98401 z"
           style="font-weight:bold;line-height:109.00000334%;font-family:'Futura XBlk BT';-inkscape-font-specification:'Futura XBlk BT Bold';fill:#ef3224;fill-opacity:1"
           id="path4418-1" /><path
           inkscape:connector-curvature="0"
           d="m 54.410195,-115.98772 -0.762662,0 0,-1.68802 2.750332,0 0,5.19103 -1.98767,0 z"
           style="font-weight:bold;line-height:109.00000334%;font-family:'Futura XBlk BT';-inkscape-font-specification:'Futura XBlk BT Bold';fill:#ef3224;fill-opacity:1"
           id="path4420-2" /><path
           inkscape:connector-curvature="0"
           d="m 48.909833,-108.05987 -0.762662,0 0,-1.68802 2.750332,0 0,5.19103 -1.98767,0 z"
           style="font-weight:bold;line-height:109.00000334%;font-family:'Futura XBlk BT';-inkscape-font-specification:'Futura XBlk BT Bold';fill:#ef3224;fill-opacity:1"
           id="path4430-7" /><path
           inkscape:connector-curvature="0"
           d="m 54.859002,-107.1385 c -2e-6,0.36017 0.02915,0.61539 0.08745,0.76565 0.0583,0.15027 0.140056,0.22541 0.245268,0.22541 0.104468,0 0.185447,-0.0744 0.242938,-0.2233 0.05748,-0.14886 0.08623,-0.40478 0.08623,-0.76776 -3e-6,-0.36047 -0.02875,-0.61572 -0.08623,-0.76577 -0.05749,-0.15005 -0.13847,-0.22507 -0.242938,-0.22507 -0.107432,0 -0.189743,0.0736 -0.246932,0.22085 -0.0572,0.14724 -0.08579,0.4039 -0.08579,0.76999 z m -1.939061,0 c 0,-0.83517 0.202096,-1.49569 0.60629,-1.98157 0.404191,-0.48587 0.959355,-0.72881 1.665492,-0.72881 0.709832,0 1.265328,0.24142 1.666492,0.72426 0.401155,0.48284 0.601734,1.14488 0.601739,1.98612 -5e-6,0.84212 -0.200399,1.50557 -0.601184,1.99033 -0.400794,0.48477 -0.956475,0.72715 -1.667047,0.72715 -0.704509,0 -1.259266,-0.24449 -1.664271,-0.73348 -0.405008,-0.48898 -0.607511,-1.15031 -0.607511,-1.984 z"
           style="font-weight:bold;line-height:109.00000334%;font-family:'Futura XBlk BT';-inkscape-font-specification:'Futura XBlk BT Bold';fill:#ef3224;fill-opacity:1"
           id="path4432-7" /></g><path
         d="m -86.510106,-67.228517 c 1.352697,0 2.448766,-1.132966 2.448766,-2.51375 l 0,-16.487419 16.152058,0.015 0.002,0 c 0.648433,0 1.27042,-0.262959 1.729807,-0.729885 0.459389,-0.468927 0.717979,-1.103827 0.718959,-1.766725 l 0.01861,-21.00173 c 10e-4,-1.38079 -1.094108,-2.50061 -2.446806,-2.50161 l -16.175567,-0.015 0,-16.51341 c 0,-1.38078 -1.096067,-2.48547 -2.448766,-2.48547 l -10.928858,0 0,64.000003 c 3.745547,0 7.232263,0 10.929847,0 z"
         id="path3-2-27-4-7-7-9"
         inkscape:connector-curvature="0"
         sodipodi:nodetypes="csccscccccssccc"
         style="fill:#ef3224;fill-opacity:0.34439835" /></g></g></svg>